<svg xmlns="http://www.w3.org/2000/svg" viewBox="0 0 32 32">
  <defs>
    <linearGradient id="grad" x1="0%" y1="0%" x2="100%" y2="100%">
      <stop offset="0%" style="stop-color:#0062FF;stop-opacity:1" />
      <stop offset="100%" style="stop-color:#00E5FF;stop-opacity:1" />
    </linearGradient>
  </defs>
  <path d="M16 2C8.268 2 2 8.268 2 16s6.268 14 14 14 14-6.268 14-14S23.732 2 16 2zm0 24c-5.523 0-10-4.477-10-10S10.477 6 16 6s10 4.477 10 10-4.477 10-10 10z" fill="url(#grad)" opacity="0.2"/>
  <path d="M16 8c-4.418 0-8 3.582-8 8s3.582 8 8 8 8-3.582 8-8-3.582-8-8-8zm4 9h-3v3h-2v-3h-3v-2h3v-3h2v3h3v2z" fill="url(#grad)"/>
</svg>
